<?xml version="1.0" encoding="utf-8"?>
<!-- Generator: Adobe Illustrator 20.1.0, SVG Export Plug-In . SVG Version: 6.00 Build 0)  -->
<svg version="1.1" id="Capa_1" xmlns="http://www.w3.org/2000/svg" xmlns:xlink="http://www.w3.org/1999/xlink" x="0px" y="0px"
	 viewBox="0 0 25 25" style="enable-background:new 0 0 25 25;" xml:space="preserve">
<style type="text/css">
	.st0{fill:#3DBEEF;}
	.st1{fill:#FFFFFF;}
</style>
<title>redes_sociales</title>
<circle class="st0" cx="12.5" cy="12.5" r="10.4"/>
<path class="st1" d="M17.6,9.3c0,0.4-0.6,0.8-0.9,1.1c0.2,3.3-2.4,6.2-5.8,6.3c-1.2,0.1-2.4-0.3-3.4-0.9c1.1,0.1,2.2-0.3,3.1-0.9
	c-0.9,0-1.7-0.6-1.9-1.5c0.3,0,0.7,0.1,0.9-0.1c-0.9-0.2-1.6-1.1-1.6-2.1c0.3,0,0.5,0.2,0.9,0.2C7.8,10.8,7.5,9.6,8,8.6
	c1.1,1.3,2.7,2.1,4.4,2.2c-0.2-1.2,0.5-2.3,1.7-2.5c0.7-0.1,1.5,0.1,2,0.6c0.5-0.1,0.9-0.3,1.4-0.5c-0.2,0.4-0.5,0.8-0.9,1.1
	C16.9,9.5,17.2,9.4,17.6,9.3"/>
</svg>
